<svg width="484" height="385" viewBox="0 0 484 385" fill="none" xmlns="http://www.w3.org/2000/svg">
<path d="M10 58.6432H474V374.281H10V58.6432Z" fill="#ECCDFF" stroke="#694ED8" stroke-width="20" stroke-linejoin="round"/>
<path d="M16.4253 43.6432L74.0162 5H415.696L468.663 43.6432H16.4253Z" fill="#694ED8" stroke="#694ED8" stroke-width="10" stroke-linejoin="round"/>
<path d="M209.079 0.396973H276.051L289 68.397H195L209.079 0.396973Z" fill="#6600CC"/>
<path d="M195 121.397L289 93.397V68.397H195V121.397Z" fill="#6600CC"/>
<path fill-rule="evenodd" clip-rule="evenodd" d="M297.532 183.628H368.643C369.321 183.628 369.995 183.644 370.665 183.676L370.615 183.628H426.911C433.9 183.814 435.632 185.723 435.8 191.529V215.233C435.8 221.01 419.246 236.444 411.501 243.666L411.483 243.682C410.993 244.14 410.538 244.564 410.125 244.95V264.615C410.125 287.525 391.553 306.097 368.643 306.097H327.162C290.07 306.097 260.002 276.028 260.002 238.936V227.658C252.641 225.175 247.196 224.175 242.165 224.156C237.16 224.137 231.743 225.088 224.446 227.594V238.937C224.446 276.028 194.378 306.097 157.286 306.097H115.805C92.895 306.097 74.3232 287.525 74.3232 264.616V244.957C73.9046 244.565 73.4427 244.134 72.9444 243.67L72.9431 243.668L72.943 243.668C65.1973 236.447 48.6433 221.013 48.6433 215.235V191.531C48.8112 185.726 50.5439 183.816 57.5322 183.63H113.828L113.78 183.677C114.451 183.645 115.126 183.628 115.805 183.628H186.916C199.274 183.628 210.238 189.602 217.076 198.819C225.654 196.052 233.791 194.495 242.277 194.527C250.727 194.559 258.826 196.166 267.328 198.877C274.164 189.627 285.148 183.628 297.532 183.628ZM388.396 225.109C388.396 214.2 379.553 205.356 368.643 205.356H297.532C288.805 205.356 281.73 212.431 281.73 221.159V238.936C281.73 264.028 302.071 284.368 327.162 284.368H368.643C379.553 284.368 388.396 275.525 388.396 264.615V225.109ZM96.0515 225.11C96.0515 214.2 104.895 205.357 115.805 205.357H186.916C195.643 205.357 202.718 212.432 202.718 221.159V238.937C202.718 264.028 182.377 284.369 157.286 284.369H115.805C104.895 284.369 96.0515 275.525 96.0515 264.616V225.11Z" fill="#694ED8"/>
</svg>
